HIERARCHY
ROOT newVegas:Hips
{
	OFFSET 0.000000 96.479958 0.000000
	CHANNELS 6 Xposition Yposition Zposition Xrotation Yrotation Zrotation
	JOINT newVegas:Pelvis
	{
		OFFSET 0.000000 0.000000 0.000000
		CHANNELS 3 Xrotation Yrotation Zrotation
		JOINT newVegas:LeftUpLeg
		{
			OFFSET 18.735201 -5.666702 -4.541200
			CHANNELS 3 Xrotation Yrotation Zrotation
			JOINT newVegas:LeftLeg
			{
				OFFSET -0.021200 -31.938179 0.493100
				CHANNELS 3 Xrotation Yrotation Zrotation
				JOINT newVegas:LeftFoot
				{
					OFFSET 0.021200 -31.938179 -4.336299
					CHANNELS 3 Xrotation Yrotation Zrotation
					JOINT newVegas:LeftToeBase
					{
						OFFSET 0.943001 -26.722000 15.023500
						CHANNELS 3 Xrotation Yrotation Zrotation
						End Site
						{
							OFFSET 0.000000 30.670183 0.000000
						}
					}
				}
				JOINT newVegas:Left_PantLeg
				{
					OFFSET 0.663870 -9.044666 -1.108900
					CHANNELS 3 Xrotation Yrotation Zrotation
					End Site
					{
						OFFSET 1.415995 20.635357 0.000000
					}
				}
			}
		}
		JOINT newVegas:RightUpLeg
		{
			OFFSET -18.735201 -5.666702 -4.541200
			CHANNELS 3 Xrotation Yrotation Zrotation
			JOINT newVegas:RightLeg
			{
				OFFSET 0.018946 -31.938133 0.493100
				CHANNELS 3 Xrotation Yrotation Zrotation
				JOINT newVegas:RightFoot
				{
					OFFSET -0.018946 -31.938126 -4.336299
					CHANNELS 3 Xrotation Yrotation Zrotation
					JOINT newVegas:RightToeBase
					{
						OFFSET -0.943001 -26.722004 15.023500
						CHANNELS 3 Xrotation Yrotation Zrotation
						End Site
						{
							OFFSET 0.000000 30.670187 0.000000
						}
					}
				}
				JOINT newVegas:Right_PantLeg
				{
					OFFSET -0.661674 -9.044716 -1.108900
					CHANNELS 3 Xrotation Yrotation Zrotation
					End Site
					{
						OFFSET -1.415958 20.635269 0.000000
					}
				}
			}
		}
	}
	JOINT newVegas:Spine
	{
		OFFSET 0.000000 10.199997 -0.299500
		CHANNELS 3 Xrotation Yrotation Zrotation
		JOINT newVegas:Spine1
		{
			OFFSET 0.000000 11.900002 -1.516600
			CHANNELS 3 Xrotation Yrotation Zrotation
			JOINT newVegas:Spine2
			{
				OFFSET 0.000000 13.600006 -2.842500
				CHANNELS 3 Xrotation Yrotation Zrotation
				JOINT newVegas:Neck
				{
					OFFSET 0.000000 9.624100 -2.890100
					CHANNELS 3 Xrotation Yrotation Zrotation
					JOINT newVegas:Head
					{
						OFFSET 0.000000 14.068802 -1.351900
						CHANNELS 3 Xrotation Yrotation Zrotation
						JOINT newVegas:Hair_Back
						{
							OFFSET 0.000000 3.231903 -17.524799
							CHANNELS 3 Xrotation Yrotation Zrotation
							End Site
							{
								OFFSET 0.000000 19.849884 0.000000
							}
						}
						JOINT newVegas:Hair_Front
						{
							OFFSET 0.000000 31.260406 4.573800
							CHANNELS 3 Xrotation Yrotation Zrotation
							JOINT newVegas:Hair_Front1
							{
								OFFSET 0.000000 2.284103 11.993300
								CHANNELS 3 Xrotation Yrotation Zrotation
								JOINT newVegas:Hair_Front2
								{
									OFFSET 0.000000 2.284103 11.993300
									CHANNELS 3 Xrotation Yrotation Zrotation
									End Site
									{
										OFFSET 0.000000 12.208862 0.000000
									}
								}
							}
						}
						JOINT newVegas:Jowel
						{
							OFFSET 0.000000 -7.458206 6.864100
							CHANNELS 3 Xrotation Yrotation Zrotation
							End Site
							{
								OFFSET 0.000000 19.849884 0.000000
							}
						}
					}
				}
				JOINT newVegas:LeftShoulder
				{
					OFFSET 15.263000 10.923401 -0.547700
					CHANNELS 3 Xrotation Yrotation Zrotation
					JOINT newVegas:LeftArm
					{
						OFFSET 25.438599 -2.830597 -13.032500
						CHANNELS 3 Xrotation Yrotation Zrotation
						JOINT newVegas:LeftForeArm
						{
							OFFSET 29.960503 0.000000 0.000000
							CHANNELS 3 Xrotation Yrotation Zrotation
							JOINT newVegas:LeftHand
							{
								OFFSET 27.849251 0.000000 0.000000
								CHANNELS 3 Xrotation Yrotation Zrotation
								JOINT newVegas:LeftHandThumb1
								{
									OFFSET 4.487587 -3.305161 6.305391
									CHANNELS 3 Xrotation Yrotation Zrotation
									JOINT newVegas:LeftHandThumb2
									{
										OFFSET 5.480453 -3.164139 3.164143
										CHANNELS 3 Xrotation Yrotation Zrotation
										JOINT newVegas:LeftHandThumb3
										{
											OFFSET 5.159721 -2.978973 2.978967
											CHANNELS 3 Xrotation Yrotation Zrotation
											End Site
											{
												OFFSET 2.494507 5.926697 1.738678
											}
										}
									}
								}
								JOINT newVegas:LeftHandIndex1
								{
									OFFSET 18.578728 -0.527832 5.208049
									CHANNELS 3 Xrotation Yrotation Zrotation
									JOINT newVegas:LeftHandIndex2
									{
										OFFSET 3.192009 0.000000 0.000000
										CHANNELS 3 Xrotation Yrotation Zrotation
										JOINT newVegas:LeftHandIndex3
										{
											OFFSET 3.835129 0.000000 0.000000
											CHANNELS 3 Xrotation Yrotation Zrotation
											End Site
											{
												OFFSET -0.034599 3.816971 0.371180
											}
										}
									}
								}
								JOINT newVegas:LeftHandMiddle1
								{
									OFFSET 18.476105 0.000000 0.000000
									CHANNELS 3 Xrotation Yrotation Zrotation
									JOINT newVegas:LeftHandMiddle2
									{
										OFFSET 3.324875 0.000000 0.000000
										CHANNELS 3 Xrotation Yrotation Zrotation
										JOINT newVegas:LeftHandMiddle3
										{
											OFFSET 4.596550 0.000000 0.000000
											CHANNELS 3 Xrotation Yrotation Zrotation
											End Site
											{
												OFFSET 0.057701 4.578827 0.399218
											}
										}
									}
								}
								JOINT newVegas:LeftHandRing1
								{
									OFFSET 17.732719 0.121887 -4.201567
									CHANNELS 3 Xrotation Yrotation Zrotation
									JOINT newVegas:LeftHandRing2
									{
										OFFSET 2.733170 0.000000 0.000000
										CHANNELS 3 Xrotation Yrotation Zrotation
										JOINT newVegas:LeftHandRing3
										{
											OFFSET 3.178268 0.000000 0.000000
											CHANNELS 3 Xrotation Yrotation Zrotation
											End Site
											{
												OFFSET 0.119102 3.170624 0.185394
											}
										}
									}
								}
								JOINT newVegas:LeftHandPinky1
								{
									OFFSET 15.989624 -0.606689 -7.535461
									CHANNELS 3 Xrotation Yrotation Zrotation
									JOINT newVegas:LeftHandPinky2
									{
										OFFSET 2.538986 0.000000 0.000000
										CHANNELS 3 Xrotation Yrotation Zrotation
										JOINT newVegas:LeftHandPinky3
										{
											OFFSET 2.593102 0.000000 0.000000
											CHANNELS 3 Xrotation Yrotation Zrotation
											End Site
											{
												OFFSET -0.150902 2.584198 0.152708
											}
										}
									}
								}
							}
							JOINT newVegas:Left_Sleeve
							{
								OFFSET 0.267448 -0.649796 0.577675
								CHANNELS 3 Xrotation Yrotation Zrotation
								End Site
								{
									OFFSET 0.000000 15.991241 0.000000
								}
							}
							JOINT newVegas:Left_CapeC
							{
								OFFSET 15.715958 -8.608795 -6.935905
								CHANNELS 3 Xrotation Yrotation Zrotation
								JOINT newVegas:Left_CapeC1
								{
									OFFSET 0.000000 -8.688499 0.000000
									CHANNELS 3 Xrotation Yrotation Zrotation
									End Site
									{
										OFFSET 0.000000 8.688499 0.000000
									}
								}
							}
						}
						JOINT newVegas:Left_CapeB
						{
							OFFSET 26.118385 -8.608795 -7.079235
							CHANNELS 3 Xrotation Yrotation Zrotation
							JOINT newVegas:Left_CapeB1
							{
								OFFSET 0.000000 -8.688499 0.000000
								CHANNELS 3 Xrotation Yrotation Zrotation
								End Site
								{
									OFFSET 0.000000 8.688499 0.000000
								}
							}
						}
						JOINT newVegas:Left_CapeA
						{
							OFFSET 5.115639 -8.608795 -10.395809
							CHANNELS 3 Xrotation Yrotation Zrotation
							JOINT newVegas:Left_CapeA1
							{
								OFFSET 0.000000 -8.688499 0.000000
								CHANNELS 3 Xrotation Yrotation Zrotation
								End Site
								{
									OFFSET 0.000000 8.688499 0.000000
								}
							}
						}
					}
				}
				JOINT newVegas:RightShoulder
				{
					OFFSET -15.263000 10.923401 -0.547700
					CHANNELS 3 Xrotation Yrotation Zrotation
					JOINT newVegas:RightArm
					{
						OFFSET -25.438599 -2.830597 -13.032500
						CHANNELS 3 Xrotation Yrotation Zrotation
						JOINT newVegas:RightForeArm
						{
							OFFSET -29.960503 0.000000 0.000000
							CHANNELS 3 Xrotation Yrotation Zrotation
							JOINT newVegas:RightHand
							{
								OFFSET -27.849251 0.000000 0.000000
								CHANNELS 3 Xrotation Yrotation Zrotation
								JOINT newVegas:RightHandThumb1
								{
									OFFSET -4.487587 -3.305161 6.305391
									CHANNELS 3 Xrotation Yrotation Zrotation
									JOINT newVegas:RightHandThumb2
									{
										OFFSET -5.480453 -3.164139 3.164143
										CHANNELS 3 Xrotation Yrotation Zrotation
										JOINT newVegas:RightHandThumb3
										{
											OFFSET -5.159721 -2.978973 2.978967
											CHANNELS 3 Xrotation Yrotation Zrotation
											End Site
											{
												OFFSET -2.494507 5.926697 1.738678
											}
										}
									}
								}
								JOINT newVegas:RightHandIndex1
								{
									OFFSET -18.578728 -0.527832 5.208049
									CHANNELS 3 Xrotation Yrotation Zrotation
									JOINT newVegas:RightHandIndex2
									{
										OFFSET -3.192009 0.000000 0.000000
										CHANNELS 3 Xrotation Yrotation Zrotation
										JOINT newVegas:RightHandIndex3
										{
											OFFSET -3.835129 0.000000 0.000000
											CHANNELS 3 Xrotation Yrotation Zrotation
											End Site
											{
												OFFSET 0.034599 3.816971 0.371180
											}
										}
									}
								}
								JOINT newVegas:RightHandMiddle1
								{
									OFFSET -18.476105 0.000000 0.000000
									CHANNELS 3 Xrotation Yrotation Zrotation
									JOINT newVegas:RightHandMiddle2
									{
										OFFSET -3.324875 0.000000 0.000000
										CHANNELS 3 Xrotation Yrotation Zrotation
										JOINT newVegas:RightHandMiddle3
										{
											OFFSET -4.596550 0.000000 0.000000
											CHANNELS 3 Xrotation Yrotation Zrotation
											End Site
											{
												OFFSET -0.057701 4.578827 0.399218
											}
										}
									}
								}
								JOINT newVegas:RightHandRing1
								{
									OFFSET -17.732719 0.121887 -4.201567
									CHANNELS 3 Xrotation Yrotation Zrotation
									JOINT newVegas:RightHandRing2
									{
										OFFSET -2.733170 0.000000 0.000000
										CHANNELS 3 Xrotation Yrotation Zrotation
										JOINT newVegas:RightHandRing3
										{
											OFFSET -3.178268 0.000000 0.000000
											CHANNELS 3 Xrotation Yrotation Zrotation
											End Site
											{
												OFFSET -0.119102 3.170624 0.185394
											}
										}
									}
								}
								JOINT newVegas:RightHandPinky1
								{
									OFFSET -15.989624 -0.606689 -7.535461
									CHANNELS 3 Xrotation Yrotation Zrotation
									JOINT newVegas:RightHandPinky2
									{
										OFFSET -2.538986 0.000000 0.000000
										CHANNELS 3 Xrotation Yrotation Zrotation
										JOINT newVegas:RightHandPinky3
										{
											OFFSET -2.593102 0.000000 0.000000
											CHANNELS 3 Xrotation Yrotation Zrotation
											End Site
											{
												OFFSET 0.150902 2.584198 0.152708
											}
										}
									}
								}
							}
							JOINT newVegas:Right_CapeC
							{
								OFFSET -15.715958 -8.608795 -6.935905
								CHANNELS 3 Xrotation Yrotation Zrotation
								JOINT newVegas:Right_CapeC1
								{
									OFFSET 0.000000 -8.688499 0.000000
									CHANNELS 3 Xrotation Yrotation Zrotation
									End Site
									{
										OFFSET 0.000000 8.688499 0.000000
									}
								}
							}
							JOINT newVegas:Right_Sleeve
							{
								OFFSET -0.267448 -0.649994 0.577675
								CHANNELS 3 Xrotation Yrotation Zrotation
								End Site
								{
									OFFSET 0.000000 15.991302 0.000000
								}
							}
						}
						JOINT newVegas:Right_CapeA
						{
							OFFSET -5.115540 -8.608795 -10.395824
							CHANNELS 3 Xrotation Yrotation Zrotation
							JOINT newVegas:Right_CapeA1
							{
								OFFSET 0.000000 -8.688499 0.000000
								CHANNELS 3 Xrotation Yrotation Zrotation
								End Site
								{
									OFFSET 0.000000 8.688499 0.000000
								}
							}
						}
						JOINT newVegas:Right_CapeB
						{
							OFFSET -26.118187 -8.608795 -7.079266
							CHANNELS 3 Xrotation Yrotation Zrotation
							JOINT newVegas:Right_CapeB1
							{
								OFFSET 0.000000 -8.688499 0.000000
								CHANNELS 3 Xrotation Yrotation Zrotation
								End Site
								{
									OFFSET 0.000000 8.688499 0.000000
								}
							}
						}
					}
				}
				JOINT newVegas:Left_Collar
				{
					OFFSET 18.625099 8.655502 8.828100
					CHANNELS 3 Xrotation Yrotation Zrotation
					JOINT newVegas:Left_Collar1
					{
						OFFSET 14.783401 10.540405 -1.259500
						CHANNELS 3 Xrotation Yrotation Zrotation
						End Site
						{
							OFFSET 0.000000 18.199875 0.000000
						}
					}
				}
				JOINT newVegas:Collar_Back
				{
					OFFSET 0.000000 15.630707 -20.132601
					CHANNELS 3 Xrotation Yrotation Zrotation
					End Site
					{
						OFFSET 0.000000 22.523010 0.000000
					}
				}
				JOINT newVegas:Left_Peck
				{
					OFFSET 17.239599 -5.132599 25.482599
					CHANNELS 3 Xrotation Yrotation Zrotation
					End Site
					{
						OFFSET 0.000000 22.523010 0.000000
					}
				}
				JOINT newVegas:Right_Peck
				{
					OFFSET -17.239599 -5.132202 25.482599
					CHANNELS 3 Xrotation Yrotation Zrotation
					End Site
					{
						OFFSET 0.000000 22.523010 0.000000
					}
				}
				JOINT newVegas:Right_Collar
				{
					OFFSET -18.625099 8.655792 8.828100
					CHANNELS 3 Xrotation Yrotation Zrotation
					JOINT newVegas:Right_Collar1
					{
						OFFSET -14.783401 10.539993 -1.259500
						CHANNELS 3 Xrotation Yrotation Zrotation
						End Site
						{
							OFFSET 0.000000 18.199631 0.000000
						}
					}
				}
			}
		}
		JOINT newVegas:Belly
		{
			OFFSET 0.000000 -6.540398 9.014299
			CHANNELS 3 Xrotation Yrotation Zrotation
			End Site
			{
				OFFSET 0.000000 11.566666 0.000000
			}
		}
	}
	JOINT newVegas:ElvisFacialAnim_Joint
	{
		OFFSET 1.000000 -95.330101 -8.825800
		CHANNELS 3 Xrotation Yrotation Zrotation
		End Site
		{
			OFFSET 0.000000 35.315800 0.000000
		}
	}
}
MOTION
Frames: 4
Frame Time: 0.033333
0.373218 69.450302 2.758465 16.542950 -8.213236 -4.469722 0.000000 0.000000 -0.000000 -93.966935 -0.015007 -0.640316 50.317304 9.590833 -2.021379 18.538165 28.402251 14.870975 -0.000000 -0.000003 -0.000000 0.000002 0.000000 -0.000000 18.409233 -8.688865 7.773408 35.612097 -14.029087 7.902250 -27.313392 -14.400224 17.533873 -0.000002 -0.000000 0.000001 0.000001 -0.000001 0.000000 10.953339 14.139354 -9.133169 2.869500 4.087947 -0.126406 2.861622 4.312288 -0.311449 -0.302674 -0.895520 1.785495 -0.302658 -0.895523 1.785499 -0.000002 -0.000001 0.000001 -0.302671 -0.895525 1.785498 -0.302689 -0.895516 1.785497 -0.000002 0.000001 -0.000001 -0.000002 -0.000001 0.000001 1.124723 -1.331169 -15.116534 -9.666005 31.516819 -40.003182 -0.000001 -10.631380 -0.000002 15.729885 -19.663964 21.017045 -5.456658 -6.701468 3.223894 8.086122 27.604274 1.097650 0.000004 0.000000 -0.000003 -1.866386 -6.065078 -12.588955 0.237182 1.651681 -16.342788 -0.000001 0.000001 0.000001 -1.264340 -0.680478 -18.650040 0.387937 2.098217 -20.947883 0.000000 -0.000003 -0.000000 0.028221 3.645188 -26.113049 0.502171 2.375017 -23.874329 0.000001 -0.000002 -0.000000 0.229231 4.355149 -33.121186 0.780417 2.923310 -29.888665 -0.000002 -0.000003 -0.000000 -0.000003 -0.000002 -0.000003 -0.000003 -0.000002 -0.000003 -0.000003 -0.000001 -0.000003 -0.000004 -0.000005 -0.000001 -0.000004 -0.000006 0.000000 -0.000004 -0.000005 -0.000001 -0.000004 -0.000004 0.000001 2.870356 11.957093 -6.152309 -33.775846 70.881914 6.886364 0.000157 94.726999 -0.000148 17.099054 20.444114 -11.109969 -15.299412 26.937110 3.983076 9.846840 -45.621678 -5.486232 0.000000 -0.000004 -0.000001 0.530840 -4.798251 13.845704 0.169904 -1.247738 15.507868 -0.000002 -0.000002 0.000002 1.576774 -6.016252 32.822269 0.816455 -2.636006 34.413621 -0.000001 0.000000 0.000001 2.347865 -6.542656 43.827415 1.218022 -3.142189 42.367851 -0.000001 0.000001 0.000001 3.146679 -6.893243 54.105535 1.765789 -3.652447 51.591468 0.000001 0.000005 -0.000002 -0.000000 0.000001 0.000000 -0.000000 -0.000001 0.000000 -0.000000 0.000001 -0.000000 0.000000 -0.000001 -0.000000 0.000000 0.000000 -0.000000 0.000000 -0.000001 -0.000000 0.000000 -0.000000 -0.000001 0.000001 0.000001 -0.000000 0.000001 0.000001 -0.000000 0.000001 0.000001 -0.000000 0.000001 0.000001 -0.000000 0.000001 0.000001 -0.000000 0.000001 0.000001 -0.000000 0.000001 0.000001 -0.000000 0.000001 0.000000 -0.000001 0.000000 0.000000 -0.000000 
-3.872533 70.208839 6.872528 18.154761 -5.843296 -7.168553 0.000000 0.000000 -0.000000 -97.622685 -1.422317 3.979940 59.713974 9.769127 -3.733595 12.662553 20.607181 14.222874 -0.000000 0.000000 0.000000 0.000002 -0.000000 0.000002 16.421030 -8.471461 9.874871 33.035521 -12.698847 8.167146 -16.863326 -17.905460 19.377711 -0.000003 0.000001 0.000001 -0.000001 0.000003 0.000001 9.588770 11.948505 -8.366317 3.619046 4.259218 -1.150528 3.614585 4.441103 -1.302994 -0.462789 -0.961680 1.770296 -0.462792 -0.961683 1.770295 -0.000000 0.000000 -0.000000 -0.462817 -0.961702 1.770304 -0.462747 -0.961658 1.770296 -0.000000 -0.000001 0.000001 -0.000000 0.000000 0.000000 0.969431 -1.902905 -17.180829 -12.096949 28.067884 -37.679302 0.000001 -6.725545 -0.000003 11.533375 -11.070071 20.569171 -5.479308 -6.677161 3.281446 8.187439 28.240469 1.195834 0.000001 0.000000 -0.000004 -1.715559 -5.730901 -12.093101 0.214970 1.573978 -15.553565 -0.000000 -0.000000 0.000000 -1.160769 -0.569620 -17.912215 0.352825 2.004160 -19.966880 -0.000003 -0.000003 -0.000001 0.030894 3.591112 -25.065841 0.457511 2.271500 -22.772527 -0.000001 0.000003 0.000001 0.215494 4.272268 -31.783302 0.712901 2.802711 -28.536947 -0.000001 -0.000003 0.000001 -0.000002 0.000001 0.000001 -0.000002 0.000001 0.000001 -0.000003 0.000001 0.000001 0.000002 0.000001 0.000002 0.000002 0.000000 0.000002 0.000002 0.000001 0.000002 0.000002 0.000002 0.000003 3.115990 14.432663 -6.661384 -33.815700 62.786015 5.499557 -0.000050 83.824255 0.000051 22.488406 24.013902 -19.972252 -15.782043 25.129992 3.168731 9.631104 -43.711739 -5.285833 0.000002 0.000002 0.000001 0.305851 -3.932550 12.891435 0.141733 -1.141376 14.156509 -0.000001 -0.000001 -0.000000 1.342525 -5.758002 30.160848 0.683734 -2.431157 31.412006 0.000000 -0.000000 0.000000 2.393009 -6.750633 40.195144 1.022653 -2.913903 38.670612 0.000001 0.000001 -0.000001 3.542145 -7.394802 49.589421 1.488016 -3.414304 47.086706 -0.000002 0.000003 0.000000 -0.000001 0.000000 0.000001 -0.000000 0.000000 0.000000 -0.000001 -0.000000 0.000000 0.000001 0.000002 0.000000 0.000001 0.000003 0.000000 0.000001 0.000002 0.000000 0.000001 0.000003 -0.000000 0.000003 0.000003 -0.000002 0.000003 0.000003 -0.000002 0.000003 0.000003 -0.000002 0.000003 0.000003 -0.000002 0.000003 0.000003 -0.000002 0.000003 0.000003 -0.000002 0.000003 0.000003 -0.000002 0.000002 0.000000 -0.000000 0.000000 0.000000 -0.000000 
-8.713736 70.706619 11.244194 20.624180 -4.139234 -9.026851 -0.000000 -0.000000 -0.000000 -101.074560 -4.137089 9.684949 67.504078 8.418152 -5.766175 8.053859 14.143756 11.925109 -0.000000 0.000003 0.000000 -0.000000 -0.000001 -0.000001 -0.780692 -12.606642 2.125207 52.157736 -10.822513 9.256925 -15.914191 -17.441959 21.632894 -0.000002 -0.000000 0.000002 0.000001 0.000002 -0.000001 8.097236 9.551074 -7.654426 4.428647 4.505227 -2.785417 4.427084 4.636494 -2.905668 -0.777684 -1.061662 1.854163 -0.777649 -1.061648 1.854157 0.000003 0.000000 0.000002 -0.777720 -1.061640 1.854157 -0.777642 -1.061675 1.854162 -0.000004 -0.000000 0.000001 0.000003 0.000000 0.000002 0.823440 -2.332100 -18.655820 -13.105154 24.785057 -36.504475 -0.000004 -5.971895 0.000005 5.088818 -1.475021 18.717148 -5.504854 -6.649780 3.346397 8.302000 28.958151 1.304961 0.000002 0.000002 0.000001 -1.536090 -5.372134 -11.406173 0.187341 1.471091 -14.513192 -0.000001 -0.000004 -0.000002 -1.043061 -0.459279 -16.953697 0.310176 1.882677 -18.709220 -0.000001 0.000001 -0.000000 0.031091 3.517114 -23.757218 0.403904 2.139418 -21.379599 0.000002 0.000001 0.000003 0.196595 4.166080 -30.146802 0.633217 2.651094 -26.862166 -0.000003 -0.000003 0.000001 0.000001 0.000001 0.000002 0.000001 0.000001 0.000002 -0.000000 0.000001 0.000002 -0.000002 0.000003 0.000003 -0.000001 0.000003 0.000004 -0.000002 0.000003 0.000003 -0.000003 0.000003 0.000001 3.170622 16.326268 -6.331487 -36.525546 53.238627 5.963725 -0.000004 73.013479 0.000011 24.451876 27.421876 -27.134238 -16.416945 23.198924 2.250992 9.385909 -41.504983 -5.045397 0.000002 -0.000002 -0.000001 0.081610 -2.923959 11.794973 0.112312 -1.017681 12.595162 -0.000001 0.000001 0.000000 1.093792 -5.443000 27.088918 0.544023 -2.186202 27.944783 -0.000001 0.000000 -0.000002 2.398731 -7.017151 35.994035 0.815850 -2.635116 34.400374 -0.000001 -0.000001 0.000000 3.881943 -8.081384 44.364121 1.191642 -3.113055 41.884428 0.000002 0.000003 -0.000000 -0.000000 0.000001 -0.000000 -0.000001 -0.000000 -0.000001 -0.000000 0.000001 -0.000001 -0.000000 -0.000001 0.000001 -0.000000 -0.000001 0.000001 -0.000000 -0.000001 0.000001 -0.000000 -0.000001 0.000001 0.000001 0.000001 -0.000002 0.000001 0.000001 -0.000002 0.000001 0.000001 -0.000002 0.000001 0.000001 -0.000002 0.000001 0.000001 -0.000002 0.000001 0.000001 -0.000002 0.000001 0.000001 -0.000002 0.000002 0.000000 -0.000000 -0.000000 -0.000000 -0.000000 
-13.965618 71.085892 15.613497 23.916884 -3.037144 -10.562506 0.000000 0.000000 -0.000001 -103.830937 -8.246400 16.069774 72.594386 5.936959 -7.901718 5.062561 8.857306 8.496661 0.000000 0.000001 0.000000 -0.000000 -0.000000 0.000001 -20.438404 -14.858238 -10.631336 66.552059 -8.720701 9.719156 -12.129228 -13.991603 21.533459 -0.000000 0.000001 -0.000003 0.000000 -0.000003 -0.000000 6.512619 7.085213 -6.893449 5.182535 4.815027 -4.662550 5.183896 4.893124 -4.750465 -1.164411 -1.181439 1.973752 -1.164398 -1.181437 1.973750 0.000002 -0.000001 -0.000000 -1.164404 -1.181458 1.973750 -1.164409 -1.181405 1.973746 0.000002 0.000000 0.000002 0.000002 -0.000001 -0.000000 0.674723 -3.190721 -20.652219 -14.584271 20.586171 -34.748007 -0.000007 -7.197483 0.000007 -4.309106 9.077273 19.383904 -5.531717 -6.621049 3.414770 8.422823 29.713358 1.418059 -0.000002 -0.000001 -0.000001 -1.350837 -4.999585 -10.632251 0.158825 1.356207 -13.357397 -0.000001 -0.000000 -0.000001 -0.923026 -0.346854 -15.893644 0.266293 1.747868 -17.324466 -0.000000 -0.000001 0.000001 0.030560 3.434396 -22.328426 0.348846 1.993201 -19.852951 0.000000 0.000001 -0.000001 0.176575 4.049427 -28.373140 0.551534 2.483469 -25.039127 -0.000000 -0.000007 0.000006 0.000001 0.000001 -0.000000 0.000001 0.000001 -0.000000 -0.000000 0.000001 -0.000000 0.000003 -0.000003 -0.000002 0.000003 -0.000003 -0.000001 0.000003 -0.000003 -0.000002 0.000003 -0.000003 -0.000000 2.948548 17.226635 -5.416890 -38.551599 43.445170 6.562485 0.000001 61.209840 -0.000003 25.152096 28.791590 -33.453044 -17.107529 21.276811 1.267774 9.135694 -39.221955 -4.787346 0.000003 0.000001 0.000001 -0.110125 -1.872156 10.666443 0.085434 -0.888901 10.979774 0.000000 -0.000000 -0.000002 0.862267 -5.100034 23.914099 0.415368 -1.924345 24.358545 0.000002 -0.000000 -0.000007 2.348469 -7.316295 31.642036 0.624417 -2.331318 29.984090 -0.000000 0.000001 0.000001 4.084204 -8.893678 38.946872 0.915165 -2.774453 36.504930 0.000000 0.000002 -0.000001 -0.000000 -0.000003 -0.000002 0.000000 -0.000003 -0.000002 -0.000000 -0.000003 -0.000001 -0.000000 0.000001 -0.000000 -0.000001 0.000000 -0.000001 -0.000000 0.000001 -0.000000 -0.000001 -0.000000 -0.000001 -0.000002 0.000001 -0.000001 -0.000002 0.000001 -0.000001 -0.000002 0.000001 -0.000001 -0.000002 0.000001 -0.000001 -0.000002 0.000001 -0.000001 -0.000002 0.000001 -0.000001 -0.000002 0.000001 -0.000001 -0.000001 -0.000000 0.000001 0.000000 0.000000 -0.000001 
